<?xml version="1.0" standalone="no"?>
<!DOCTYPE svg PUBLIC "-//W3C//DTD SVG 20010904//EN"
 "http://www.w3.org/TR/2001/REC-SVG-20010904/DTD/svg10.dtd">
<svg version="1.0" xmlns="http://www.w3.org/2000/svg"
 width="1067.000000pt" height="1067.000000pt" viewBox="0 0 1067.000000 1067.000000"
 preserveAspectRatio="xMidYMid meet">

<g transform="translate(0.000000,1067.000000) scale(0.100000,-0.100000)"
fill="#000000" stroke="none">
<path d="M6730 8675 l0 -55 205 0 205 0 0 55 0 55 -205 0 -205 0 0 -55z"/>
<path d="M6890 7792 c-85 -20 -329 -21 -562 -3 -198 16 -223 12 -233 -36 -3
-15 -32 -116 -65 -223 -78 -255 -99 -336 -102 -388 l-3 -44 105 -37 c183 -66
372 -152 442 -202 35 -25 39 -24 66 16 31 48 71 48 119 0 l35 -35 67 44 c131
86 314 165 454 196 44 10 57 17 57 31 0 34 -62 313 -92 414 -16 55 -40 120
-54 144 -13 24 -24 54 -24 68 0 13 -7 35 -16 48 -14 22 -23 25 -73 24 -31 -1
-85 -8 -121 -17z"/>
<path d="M8560 7149 c-32 -13 -68 -47 -86 -81 -18 -35 -18 -172 1 -305 16
-113 8 -295 -20 -454 -25 -143 -30 -136 -30 41 0 190 -4 203 -81 248 -76 45
-188 12 -229 -68 -17 -33 -20 -106 -5 -145 14 -36 95 -113 207 -197 l92 -70
-20 -51 c-55 -142 -147 -281 -269 -410 -85 -90 -110 -131 -36 -58 24 24 48 41
53 38 6 -4 10 -26 10 -50 1 -66 24 -100 154 -232 66 -66 119 -120 119 -121 0
-1 -10 -4 -22 -8 -13 -3 -58 -25 -100 -50 -75 -42 -78 -43 -84 -22 -18 59 -92
115 -151 116 -23 0 -23 0 -23 -169 0 -126 3 -171 13 -174 10 -4 10 -6 0 -6 -9
-1 -13 -23 -13 -75 l0 -75 64 -45 c123 -88 180 -102 256 -63 62 31 83 65 88
140 3 53 0 67 -20 97 -13 19 -39 45 -58 58 -31 21 -43 23 -100 19 -36 -3 -76
-9 -90 -13 l-25 -8 27 33 c15 17 30 48 33 69 3 20 10 44 14 52 11 20 189 113
272 141 l69 24 62 -70 c140 -158 216 -215 282 -215 95 0 176 80 176 173 0 54
-40 118 -90 144 -52 28 -111 29 -254 8 -55 -8 -102 -15 -105 -15 -3 0 35 23
84 51 156 89 249 169 386 332 l24 28 75 -26 c105 -36 227 -65 278 -65 164 0
229 225 89 310 -90 55 -171 30 -332 -105 -27 -23 -55 -44 -61 -48 -7 -4 17 43
52 105 35 61 68 126 74 144 10 28 19 35 53 44 95 23 265 81 301 102 145 84 80
311 -88 311 -115 0 -166 -73 -247 -353 -27 -94 -103 -245 -192 -377 -37 -57
-70 -103 -72 -103 -2 0 24 55 58 123 57 113 62 127 62 188 0 56 -4 71 -27 101
-36 47 -102 73 -160 64 -88 -14 -157 -105 -143 -187 7 -41 93 -224 140 -299
l27 -42 -49 -46 c-125 -117 -281 -212 -454 -277 -87 -32 -91 -33 -85 -13 3 12
15 72 27 134 l22 112 38 5 c52 7 98 42 120 91 23 52 23 90 0 142 -25 55 -71
87 -136 92 -47 4 -63 -1 -166 -52 -63 -31 -118 -56 -122 -56 -4 0 10 24 32 53
85 113 146 238 191 392 l26 90 138 17 c173 21 237 41 276 84 91 105 17 274
-121 274 -60 0 -90 -11 -124 -47 -27 -29 -112 -174 -134 -231 -20 -49 -29 -47
-20 6 4 26 11 104 15 174 l7 128 55 41 c78 59 201 178 218 211 21 40 17 107
-9 153 -38 68 -135 102 -207 74z"/>
<path d="M1765 6406 c-16 -7 -50 -30 -74 -50 -25 -21 -62 -46 -83 -57 -49 -25
-105 -75 -123 -109 -11 -21 -14 -62 -12 -161 1 -128 0 -136 -26 -191 -16 -32
-48 -75 -73 -96 -43 -38 -54 -64 -34 -77 23 -14 4 -82 -42 -147 -7 -9 -9 -20
-6 -24 12 -11 123 -20 155 -12 43 11 126 103 147 163 35 97 31 93 83 100 74 9
110 30 142 80 l29 45 6 -35 c4 -20 0 -72 -9 -121 -12 -67 -13 -93 -4 -127 15
-55 18 -60 35 -46 9 7 14 32 14 70 0 94 19 206 50 290 39 105 55 127 102 141
39 12 42 11 64 -17 l23 -29 16 37 c18 44 19 123 2 157 -7 14 -32 35 -55 48
-32 18 -42 29 -42 49 0 37 -65 95 -129 116 -63 20 -115 21 -156 3z"/>
<path d="M4243 6028 c-27 -13 -27 -14 -9 -66 8 -22 20 -73 26 -113 11 -65 10
-81 -5 -134 -11 -38 -29 -70 -48 -87 -29 -28 -29 -29 -17 -75 14 -58 5 -496
-12 -586 -8 -44 -8 -61 1 -70 15 -15 232 -35 380 -36 125 -1 234 14 251 34 7
9 5 41 -7 111 -14 80 -17 147 -16 349 l2 251 -28 27 c-27 25 -30 34 -36 129
-5 75 -3 122 8 173 8 39 12 73 9 76 -4 4 -26 10 -49 14 -41 6 -42 6 -68 -39
-64 -110 -144 -136 -223 -73 -45 35 -92 93 -92 114 0 16 -36 16 -67 1z"/>
<path d="M2107 5882 c-3 -16 -22 -50 -42 -76 -26 -34 -30 -44 -15 -36 17 9 20
8 20 -10 0 -17 3 -19 19 -11 33 18 54 115 32 149 -6 10 -10 5 -14 -16z"/>
<path d="M1933 5376 c36 -55 64 -103 61 -108 -3 -4 -15 -6 -27 -3 -21 6 -22 3
-19 -54 2 -37 -4 -90 -17 -143 -11 -46 -28 -134 -36 -196 -9 -62 -25 -141 -35
-175 -14 -43 -23 -115 -30 -232 -10 -164 -20 -221 -45 -257 -9 -14 -7 -32 14
-90 19 -57 26 -99 29 -189 7 -188 -23 -279 -92 -279 -72 0 -100 55 -98 190 1
85 -13 244 -24 274 -3 9 -14 16 -25 16 -39 0 -101 130 -139 290 l-13 55 -39
-84 c-34 -74 -38 -92 -38 -160 0 -129 33 -243 99 -346 17 -26 21 -62 31 -266
8 -167 9 -247 1 -275 -7 -27 -29 -57 -73 -99 -141 -137 -207 -208 -324 -348
-68 -81 -124 -151 -124 -155 0 -5 16 -27 36 -50 37 -44 100 -85 144 -95 37 -9
84 24 124 85 19 29 50 69 70 87 l36 35 0 -212 0 -212 39 -20 c80 -40 165 -35
208 13 15 16 22 42 27 97 3 41 17 120 30 175 14 55 32 143 42 195 10 58 28
116 45 149 16 30 29 69 29 87 0 18 11 49 24 68 14 22 37 93 61 192 20 86 44
172 51 191 8 18 28 86 45 151 28 103 32 141 39 317 14 356 32 600 44 607 10 7
27 318 26 483 -1 77 -44 170 -130 280 -93 119 -100 121 -27 11z"/>
<path d="M2627 5433 c-104 -143 -225 -329 -215 -332 15 -5 35 21 153 195 53
79 95 150 93 159 -2 12 -11 6 -31 -22z"/>
<path d="M4292 4170 c3 -20 0 -30 -9 -30 -33 0 -122 -162 -181 -331 -42 -119
-88 -317 -117 -503 -22 -140 -23 -163 -11 -181 14 -22 62 -39 144 -51 23 -3
42 -10 42 -14 0 -5 7 -16 16 -24 12 -12 38 -16 114 -16 85 0 105 4 156 27 76
35 106 33 189 -11 48 -25 81 -36 111 -36 62 0 94 15 94 44 0 21 5 24 53 30 66
9 114 37 123 72 4 16 -6 92 -25 188 -17 88 -36 195 -42 236 -18 128 -88 360
-139 461 -25 48 -78 109 -95 109 -8 0 -15 12 -17 28 l-3 27 -204 3 -203 2 4
-30z"/>
<path d="M8963 2710 c-16 -6 -23 -18 -23 -35 l0 -25 380 0 c370 0 380 1 380
19 0 11 -10 27 -22 35 -19 14 -70 16 -358 15 -184 0 -345 -4 -357 -9z"/>
<path d="M646 2644 c-10 -33 -26 -255 -26 -374 0 -154 33 -277 78 -295 13 -5
14 6 8 67 -4 40 -15 114 -26 166 -18 84 -19 107 -9 220 10 122 7 193 -10 221
-7 11 -10 10 -15 -5z"/>
<path d="M8950 2600 c0 -6 130 -10 370 -10 240 0 370 4 370 10 0 6 -130 10
-370 10 -240 0 -370 -4 -370 -10z"/>
<path d="M8950 2540 c0 -6 128 -10 365 -10 237 0 365 4 365 10 0 6 -128 10
-365 10 -237 0 -365 -4 -365 -10z"/>
<path d="M8964 2448 c4 -24 17 -132 31 -242 13 -109 30 -205 36 -212 26 -31
109 -44 283 -44 183 0 234 8 275 38 25 18 27 29 53 228 14 115 27 224 27 242
l1 32 -356 0 -355 0 5 -42z"/>
</g>
</svg>
